<svg width="30" height="30" viewBox="0 0 30 30" fill="none" xmlns="http://www.w3.org/2000/svg">
<g clip-path="url(#clip0_831_34824)">
<path fill-rule="evenodd" clip-rule="evenodd" d="M15.4069 9.83063C17.1469 7.4775 19.0706 5.625 21.5306 5.625C26.175 5.625 30 11.5369 30.0019 18.5756C30.0019 22.8694 28.1531 25.56 24.8325 25.56C21.9394 25.56 20.3419 23.9363 17.475 19.14L16.2244 17.0344L16.0031 16.665C15.677 16.1138 15.3457 15.5656 15.0094 15.0206L12.8006 18.9206C9.66375 24.405 7.8975 25.56 5.445 25.56C2.03625 25.56 0 22.9069 0 18.6994C0 11.9775 3.74063 5.625 8.62125 5.625C9.21937 5.625 9.79313 5.69812 10.3537 5.85375C10.935 6.015 11.4994 6.26625 12.0656 6.61688C13.1475 7.29 14.2294 8.3325 15.4069 9.83063ZM18.2494 14.0006C17.7769 13.2319 17.3231 12.525 16.8862 11.8763L16.875 11.8613C18.4594 9.41438 19.7681 8.1975 21.3225 8.1975C24.5531 8.1975 27.1388 12.9544 27.1388 18.7969C27.1388 21.0244 26.4075 22.3162 24.8981 22.3162C23.4488 22.3162 22.7569 21.36 20.0044 16.935L18.2475 14.0006H18.2494ZM9.08625 8.9175C10.4456 9.105 11.6831 10.1062 13.4738 12.6694C12.4406 14.2514 11.4187 15.8409 10.4081 17.4375C7.86375 21.4237 6.98438 22.3181 5.56875 22.3181C4.11188 22.3181 3.24375 21.0394 3.24375 18.7556C3.24375 13.8769 5.6775 8.88562 8.58 8.88562C8.75063 8.88562 8.91938 8.89687 9.08625 8.91937V8.9175Z" fill="#0063E0"/>
</g>
<defs>
<clipPath id="clip0_831_34824">
<rect width="30" height="30" fill="white"/>
</clipPath>
</defs>
</svg>
