<svg width="30" height="30" viewBox="0 0 30 30" fill="none" xmlns="http://www.w3.org/2000/svg">
<path d="M28 15.3087C28 14.4041 27.9207 13.5452 27.7847 12.7092H14.9766V17.8739H22.3101C21.9814 19.5687 21.0179 21.0002 19.5898 21.9736V25.4091H23.9649C26.5265 23.0157 28 19.4886 28 15.3087Z" fill="#4285F4"/>
<path d="M14.9773 28.7417C18.6497 28.7417 21.7214 27.505 23.9656 25.4093L19.5904 21.9738C18.3663 22.7984 16.8135 23.3022 14.9773 23.3022C11.4295 23.3022 8.42586 20.8859 7.34907 17.6222H2.83789V21.1608C5.07081 25.6498 9.66133 28.7417 14.9773 28.7417Z" fill="#34A853"/>
<path d="M7.34834 17.6223C7.06498 16.7978 6.91762 15.916 6.91762 14.9999C6.91762 14.0838 7.07631 13.202 7.34834 12.3775V8.83893H2.83716C1.90773 10.6941 1.375 12.7783 1.375 14.9999C1.375 17.2215 1.90773 19.3057 2.83716 21.1609L7.34834 17.6223Z" fill="#FBBC05"/>
<path d="M14.9773 6.69757C16.9835 6.69757 18.7744 7.39612 20.1912 8.75886L24.0676 4.84241C21.7213 2.6208 18.6497 1.25806 14.9773 1.25806C9.66133 1.25806 5.07081 4.34999 2.83789 8.83902L7.34907 12.3776C8.42585 9.11386 11.4295 6.69757 14.9773 6.69757Z" fill="#EA4335"/>
</svg>
