<svg width="52" height="51" viewBox="0 0 52 51" fill="none" xmlns="http://www.w3.org/2000/svg">
<path fill-rule="evenodd" clip-rule="evenodd" d="M26.0007 9.3632H34.2416V17.6041C34.2416 22.1554 30.552 25.8449 26.0007 25.8449C21.4494 25.8449 17.7598 22.1554 17.7598 17.6041C17.7598 13.0528 21.4494 9.3632 26.0007 9.3632ZM8.76978 17.6041C8.76978 8.08771 16.4843 0.373169 26.0007 0.373169H43.2316V17.6041C43.2316 27.1204 35.517 34.835 26.0007 34.835C16.4843 34.835 8.76978 27.1204 8.76978 17.6041ZM37.7282 36.3325C35.0994 39.2697 31.089 40.8287 26.0006 40.8287C20.9122 40.8287 16.9018 39.2697 14.273 36.3325L7.57422 42.3281C12.353 47.6674 19.1075 49.8187 26.0006 49.8187C32.8937 49.8187 39.6482 47.6674 44.427 42.3281L37.7282 36.3325Z" fill="url(#paint0_linear_831_34810)"/>
<defs>
<linearGradient id="paint0_linear_831_34810" x1="41.7332" y1="0.373169" x2="10.8995" y2="45.0884" gradientUnits="userSpaceOnUse">
<stop stop-color="#3FBA69"/>
<stop offset="1" stop-color="#4EFB85"/>
</linearGradient>
</defs>
</svg>
