<svg width="47" height="46" viewBox="0 0 47 46" fill="none" xmlns="http://www.w3.org/2000/svg">
<path d="M40.916 33.7812C43.6904 33.7812 45.9473 31.5237 45.9473 28.75V21.5625C45.9473 18.7881 43.6904 16.5312 40.916 16.5312H40.1973V12.9375C40.1973 12.5407 39.8753 12.2188 39.4785 12.2188H22.2285C21.8318 12.2188 21.5098 12.5407 21.5098 12.9375V25.875H14.3223C14.1189 25.875 13.9255 25.9605 13.7897 26.1115C13.6531 26.2617 13.587 26.4629 13.6071 26.6656L13.689 27.485L7.62639 29.5061C7.43161 29.5708 7.2742 29.7153 7.1937 29.9036C7.11248 30.0926 7.11608 30.3061 7.20233 30.4915L7.65586 31.464L4.22167 34.4073C3.5367 34.9945 3.0803 35.788 2.90492 36.6562H2.10352C1.70677 36.6562 1.38477 36.9775 1.38477 37.375V40.25C1.38477 40.6475 1.70677 40.9688 2.10352 40.9688H3.20392L6.58277 45.0232C6.71933 45.1864 6.9213 45.2812 7.13477 45.2812H40.1973C40.4107 45.2812 40.6127 45.1864 40.7493 45.0232L44.1281 40.9688H45.2285C45.6253 40.9688 45.9473 40.6475 45.9473 40.25V37.375C45.9473 36.9775 45.6253 36.6562 45.2285 36.6562H40.1973V33.7812H40.916ZM40.916 17.9688C42.8976 17.9688 44.5098 19.5809 44.5098 21.5625V28.75C44.5098 30.7316 42.8976 32.3438 40.916 32.3438H40.1973V30.9062H40.916C42.1048 30.9062 43.0723 29.9388 43.0723 28.75V21.5625C43.0723 20.3737 42.1048 19.4062 40.916 19.4062H40.1973V17.9688H40.916ZM40.1973 20.8438H40.916C41.312 20.8438 41.6348 21.1665 41.6348 21.5625V28.75C41.6348 29.1467 41.312 29.4688 40.916 29.4688H40.1973V20.8438ZM38.7598 13.6562V16.5312H22.9473V13.6562H38.7598ZM26.4655 27.3125L25.5312 36.6562H16.0509L15.1165 27.3125H26.4655ZM27.7464 28.9505L32.7359 30.6137L29.917 36.6562H26.9766L27.7464 28.9505ZM33.2951 32.816L36.4245 35.4983C36.7868 35.8088 37.0369 36.2135 37.1814 36.6562H31.5033L33.2951 32.816ZM13.8357 28.9505L14.6062 36.6562H11.6658L8.84611 30.6144L13.8357 28.9505ZM5.15748 35.4983L8.28692 32.816L10.0788 36.6562H4.40064C4.54511 36.2135 4.79523 35.8088 5.15748 35.4983ZM39.8609 43.8438H7.47114L5.07555 40.9688H42.2565L39.8609 43.8438ZM44.5098 39.5312H2.82227V38.0938H44.5098V39.5312ZM38.6771 36.6562C38.5017 35.788 38.0446 34.9945 37.3596 34.4066L33.9255 31.464L34.379 30.4915C34.466 30.3054 34.4688 30.0919 34.3876 29.9036C34.3071 29.7153 34.149 29.5708 33.9549 29.5061L27.8923 27.485L27.9742 26.6656C27.9943 26.4637 27.9282 26.2617 27.7916 26.1115C27.6565 25.9605 27.4632 25.875 27.2598 25.875H22.9473V17.9688H38.7598V36.6562H38.6771Z" fill="#0FBA12"/>
<path d="M34.1497 5.7501C34.3387 5.93913 34.4473 6.20147 34.4473 6.46885C34.4473 6.73622 34.3387 6.99857 34.1497 7.1876L33.2204 8.11694L34.2367 9.13326L35.166 8.20391C35.6296 7.74104 35.8848 7.12435 35.8848 6.46885C35.8848 5.81335 35.6296 5.19666 35.166 4.73379L34.7448 4.3126C34.5558 4.12357 34.4473 3.86122 34.4473 3.59385C34.4473 3.32647 34.5558 3.06413 34.7448 2.8751L35.6742 1.94576L34.6579 0.929443L33.7285 1.85879C33.2649 2.32166 33.0098 2.93835 33.0098 3.59385C33.0098 4.24935 33.2649 4.86604 33.7285 5.32891L34.1497 5.7501Z" fill="#0FBA12"/>
<path d="M30.556 5.7501C30.745 5.93913 30.8535 6.20147 30.8535 6.46885C30.8535 6.73622 30.745 6.99857 30.556 7.1876L29.6266 8.11694L30.6429 9.13326L31.5723 8.20391C32.0359 7.74104 32.291 7.12435 32.291 6.46885C32.291 5.81335 32.0359 5.19666 31.5723 4.73379L31.1511 4.3126C30.962 4.12357 30.8535 3.86122 30.8535 3.59385C30.8535 3.32647 30.962 3.06413 31.1511 2.8751L32.0804 1.94576L31.0641 0.929443L30.1348 1.85879C29.6712 2.32166 29.416 2.93835 29.416 3.59385C29.416 4.24935 29.6712 4.86604 30.1348 5.32891L30.556 5.7501Z" fill="#0FBA12"/>
<path d="M26.9622 5.7501C27.1512 5.93913 27.2598 6.20147 27.2598 6.46885C27.2598 6.73622 27.1512 6.99857 26.9622 7.1876L26.0329 8.11694L27.0492 9.13326L27.9785 8.20391C28.4421 7.74104 28.6973 7.12435 28.6973 6.46885C28.6973 5.81335 28.4421 5.19666 27.9785 4.73379L27.5573 4.3126C27.3683 4.12357 27.2598 3.86122 27.2598 3.59385C27.2598 3.32647 27.3683 3.06413 27.5573 2.8751L28.4867 1.94576L27.4704 0.929443L26.541 1.85879C26.0774 2.32166 25.8223 2.93835 25.8223 3.59385C25.8223 4.24935 26.0774 4.86604 26.541 5.32891L26.9622 5.7501Z" fill="#0FBA12"/>
<path d="M10.7285 19.4062C15.8805 19.4062 20.0723 15.2145 20.0723 10.0625C20.0723 4.9105 15.8805 0.71875 10.7285 0.71875C5.57652 0.71875 1.38477 4.9105 1.38477 10.0625C1.38477 15.2145 5.57652 19.4062 10.7285 19.4062ZM2.85892 9.34375C3.0077 7.70284 3.65745 6.20569 4.65652 5.00681L5.90786 6.25816L6.92417 5.24184L5.67283 3.9905C6.8717 2.99072 8.36886 2.34169 10.0098 2.19291V4.3125H11.4473V2.19291C13.0882 2.34169 14.5853 2.99144 15.7842 3.9905L14.5329 5.24184L15.5492 6.25816L16.8005 5.00681C17.8003 6.20497 18.4493 7.70284 18.5981 9.34375H16.4785V10.7812H18.5981C18.4493 12.4222 17.7996 13.9193 16.8005 15.1182L15.5492 13.8668L14.5329 14.8832L15.7842 16.1345C14.586 17.1343 13.0882 17.7833 11.4473 17.9321V15.8125H10.0098V17.9321C8.36886 17.7833 6.8717 17.1336 5.67283 16.1345L6.92417 14.8832L5.90786 13.8668L4.65652 15.1182C3.65673 13.9193 3.0077 12.4222 2.85892 10.7812H4.97852V9.34375H2.85892Z" fill="#0FBA12"/>
<path d="M11.237 10.5707C11.3721 10.4362 11.4476 10.253 11.4476 10.0625V5.75H10.0101V9.76494L7.3457 12.4293L8.36202 13.4457L11.237 10.5707Z" fill="#0FBA12"/>
</svg>
