<svg width="47" height="46" viewBox="0 0 47 46" fill="none" xmlns="http://www.w3.org/2000/svg">
<g clip-path="url(#clip0_10855_7109)">
<path d="M15.3711 17.0703C15.1346 17.0703 14.9029 17.1665 14.7348 17.3335C14.5678 17.5006 14.4727 17.7326 14.4727 17.9688C14.4727 18.2049 14.5678 18.4369 14.7348 18.604C14.9029 18.771 15.1346 18.8672 15.3711 18.8672C15.6073 18.8672 15.8389 18.771 16.006 18.604C16.1734 18.4369 16.2695 18.2049 16.2695 17.9688C16.2695 17.7326 16.1734 17.5006 16.006 17.3335C15.8389 17.1665 15.6073 17.0703 15.3711 17.0703Z" fill="#0FBA12"/>
<path d="M45.7676 9.16406H44.587L43.3478 5.46468C43.2249 5.09828 42.882 4.85156 42.496 4.85156H26.9376C26.5515 4.85156 26.2083 5.09828 26.0858 5.46468L24.8466 9.16406H22.4854L21.2462 5.46468C21.1234 5.09828 20.7805 4.85156 20.3944 4.85156H4.83603C4.44998 4.85156 4.10675 5.09828 3.98427 5.46468L2.74506 9.16406H1.56445C1.06821 9.16406 0.666016 9.56625 0.666016 10.0625V14.375C0.666016 14.8712 1.06821 15.2734 1.56445 15.2734H2.48009L4.57668 31.3555H2.74295C2.17897 31.3555 1.65465 31.6352 1.34019 32.1033C1.02574 32.5715 0.965729 33.1629 1.17911 33.6847L4.00462 40.5901C4.1429 40.928 4.47139 41.1484 4.83603 41.1484H20.3944C20.6327 41.1484 20.8616 41.0537 21.03 40.8849L23.666 38.2461L26.302 40.8849C26.4705 41.0537 26.6993 41.1484 26.9376 41.1484H31.123C31.6193 41.1484 32.0215 40.7462 32.0215 40.25C32.0215 39.7538 31.6193 39.3516 31.123 39.3516H27.3103L24.3016 36.3397C24.1331 36.1709 23.9047 36.0761 23.666 36.0761C23.4277 36.0761 23.1989 36.1709 23.0304 36.3397L20.0217 39.3516H5.43932L2.90263 33.1523H44.4294L41.8927 39.3516H38.3105C37.8143 39.3516 37.4121 39.7538 37.4121 40.25C37.4121 40.7462 37.8143 41.1484 38.3105 41.1484H42.496C42.8606 41.1484 43.1895 40.928 43.3274 40.5901L46.1526 33.6847C46.3663 33.1629 46.3063 32.5715 45.9918 32.1033C45.6774 31.6352 45.1531 31.3555 44.5891 31.3555H42.7554L44.8519 15.2734H45.7676C46.2638 15.2734 46.666 14.8712 46.666 14.375V10.0625C46.666 9.56625 46.2638 9.16406 45.7676 9.16406ZM44.8691 13.4766H24.5645V10.9609H44.8691V13.4766ZM23.666 15.2734H24.5816L26.6782 31.3555H20.6538L22.7504 15.2734H23.666ZM27.5844 6.64844H41.8492L42.6918 9.16406H26.7418L27.5844 6.64844ZM5.48283 6.64844H19.7476L20.5903 9.16406H4.6402L5.48283 6.64844ZM2.46289 10.9609H22.7676V13.4766H2.46289V10.9609ZM6.38864 31.3555L4.76057 18.8672H11.7768C12.2731 18.8672 12.6752 18.465 12.6752 17.9688C12.6752 17.4725 12.2731 17.0703 11.7768 17.0703H4.52649L4.29205 15.2734H20.9384L18.8418 31.3555H6.38864ZM40.9434 31.3555H28.4902L26.3936 15.2734H43.04L40.9434 31.3555Z" fill="#0FBA12"/>
<path d="M34.7168 39.3516C34.4806 39.3516 34.2486 39.4477 34.0816 39.6148C33.9145 39.7818 33.8184 40.0138 33.8184 40.25C33.8184 40.4862 33.9145 40.7182 34.0816 40.8852C34.2486 41.0523 34.4806 41.1484 34.7168 41.1484C34.953 41.1484 35.185 41.0523 35.352 40.8852C35.5191 40.7182 35.6152 40.4862 35.6152 40.25C35.6152 40.0138 35.5191 39.7818 35.352 39.6148C35.185 39.4477 34.953 39.3516 34.7168 39.3516Z" fill="#0FBA12"/>
</g>
<defs>
<clipPath id="clip0_10855_7109">
<rect width="46" height="46" fill="white" transform="translate(0.666016)"/>
</clipPath>
</defs>
</svg>
