<svg width="47" height="46" viewBox="0 0 47 46" fill="none" xmlns="http://www.w3.org/2000/svg">
<g clip-path="url(#clip0_10855_11256)">
<path d="M6.61719 26.1484C6.61719 29.4592 9.23901 32.1526 12.4616 32.1526C15.6842 32.1526 18.306 29.4592 18.306 26.1484C18.306 25.7762 18.0043 25.4746 17.6322 25.4746H7.29102C6.91888 25.4746 6.61719 25.7762 6.61719 26.1484ZM16.9115 26.8223C16.5952 29.0717 14.7202 30.805 12.4617 30.805C10.2031 30.805 8.32808 29.0717 8.01183 26.8223H16.9115Z" fill="#0FBA12"/>
<path d="M44.1343 37.8865H43.8892C43.7835 29.955 37.8461 23.4065 30.1781 22.3422V21.1494C30.1781 19.9376 29.1922 18.9517 27.9804 18.9517C26.7686 18.9517 25.7826 19.9376 25.7826 21.1494V22.3415C23.8995 22.6024 22.0819 23.1977 20.4088 24.1045V20.9176C20.4088 20.3161 19.9195 19.8268 19.318 19.8268H16.2633C15.8912 19.8268 15.5895 20.1284 15.5895 20.5006C15.5895 20.8728 15.8912 21.1744 16.2633 21.1744H19.0611C19.0611 26.5479 19.0889 26.4112 18.9885 27.1522C18.5824 29.9899 16.4725 32.3108 13.689 32.8518C13.6827 32.853 13.6765 32.8546 13.6701 32.8558C13.3558 32.9162 13.1232 33.1918 13.1232 33.5176V38.8319V38.833C13.1232 39.2688 13.7472 39.8109 14.0937 40.0478L15.3903 40.9344H9.53383L10.8303 40.0479C11.1784 39.8099 11.8009 39.2682 11.8009 38.8331V33.5177C11.8009 33.1943 11.5713 32.9166 11.2538 32.8559C10.1502 32.6447 9.15442 32.155 8.32678 31.4663C8.31815 31.4582 8.30998 31.4498 8.30081 31.4421C7.04129 30.3822 6.20727 28.8808 5.94942 27.2439C5.94816 27.2359 5.947 27.2278 5.94574 27.2197C5.83514 26.5012 5.8629 26.2139 5.8629 21.1744H7.4482H13.1189C13.491 21.1744 13.7927 20.8728 13.7927 20.5006C13.7927 20.1284 13.491 19.8268 13.1189 19.8268H8.12175V12.7665C8.12175 12.1136 7.5906 11.5825 6.93779 11.5825H5.86263V10.7167C6.26064 10.6118 6.63978 10.4129 6.96555 10.119C7.88636 9.28791 8.10962 7.94977 7.50848 6.86482L6.04403 4.22153C5.8718 3.91076 5.54405 3.71777 5.18871 3.71777C4.83338 3.71777 4.50572 3.91085 4.33358 4.22162L2.86913 6.86491C2.26798 7.94986 2.49125 9.288 3.41214 10.1191C3.73792 10.413 4.11697 10.6118 4.51498 10.7168V11.5826H3.43982C2.78701 11.5826 2.25586 12.1137 2.25586 12.7666V25.885H1.49533C1.1232 25.885 0.8215 26.1866 0.8215 26.5588V29.4155C0.8215 31.1527 1.84132 32.6559 3.3135 33.3588V38.5339C1.661 38.5846 0.332031 39.9437 0.332031 41.6083C0.332031 41.9805 0.633727 42.2821 1.00586 42.2821H37.5042C37.8763 42.2821 38.178 41.9805 38.178 41.6083C38.178 41.2361 37.8763 40.9345 37.5042 40.9345H17.6684C17.6091 40.8471 17.5211 40.7591 17.4344 40.6998L15.2911 39.2342H44.1343C44.603 39.2342 44.9844 39.6156 44.9844 40.0844C44.9844 40.5532 44.603 40.9345 44.1343 40.9345H40.6487C40.2766 40.9345 39.9749 41.2361 39.9749 41.6083C39.9749 41.9805 40.2766 42.2821 40.6487 42.2821H44.1343C45.3461 42.2821 46.332 41.2962 46.332 40.0844C46.332 38.8725 45.3461 37.8865 44.1343 37.8865ZM4.04788 7.51807L5.1888 5.45886L6.32973 7.51807C6.67186 8.13557 6.46692 8.91083 5.84817 9.27533C5.78402 8.96995 5.51332 8.74058 5.18889 8.74058C4.86447 8.74058 4.59368 8.96995 4.52962 9.27533C3.91248 8.91173 3.70486 8.13719 4.04788 7.51807ZM10.453 38.599C10.2433 38.8357 10.1375 38.8889 9.22117 39.5155C8.66711 38.92 7.89265 38.5605 7.06411 38.5347V33.3616C7.35952 33.2208 7.63938 33.0458 7.8993 32.8387C8.65911 33.3871 9.51918 33.8049 10.453 34.0543V38.599ZM3.6036 12.9303H6.77419V19.8268H5.60577C5.00436 19.8268 4.51498 20.3161 4.51498 20.9176V25.885H3.6036V12.9303ZM2.16916 29.4154V27.2326H4.5855C4.82054 29.0465 5.63686 30.6896 6.85226 31.9363C4.8642 33.2579 2.16916 31.8192 2.16916 29.4154ZM5.71646 33.7507V38.5315H4.66115V33.7507C4.99834 33.792 5.35079 33.7945 5.71646 33.7507ZM3.40882 39.8792H6.96879C7.3845 39.8792 7.77945 40.0293 8.08752 40.2906C7.49033 40.699 7.37973 40.7505 7.25521 40.9345H1.81634C2.07958 40.3148 2.6942 39.8792 3.40882 39.8792ZM27.1302 21.1494C27.1302 20.6806 27.5116 20.2993 27.9803 20.2993C28.449 20.2993 28.8304 20.6806 28.8304 21.1494V22.2124C28.2786 22.1834 27.7079 22.1817 27.1301 22.2123V21.1494H27.1302ZM14.4707 37.8865V34.0543C17.3908 33.2748 19.8792 30.7178 20.3286 27.2983C20.404 26.7497 20.4178 26.2283 20.4121 25.6562C29.9665 19.833 42.3797 26.6467 42.5427 37.8865H14.4707Z" fill="#0FBA12"/>
</g>
<defs>
<clipPath id="clip0_10855_11256">
<rect width="46" height="46" fill="white" transform="translate(0.332031)"/>
</clipPath>
</defs>
</svg>
