<svg width="46" height="46" viewBox="0 0 46 46" fill="none" xmlns="http://www.w3.org/2000/svg">
<g clip-path="url(#clip0_10855_12767)">
<path d="M44.8358 24.6384H43.4592V11.1772C44.2073 10.6292 44.6943 9.74495 44.6943 8.74868V4.13385C44.6943 3.41465 44.1092 2.82959 43.39 2.82959H2.60987C1.89076 2.82959 1.3057 3.41465 1.3057 4.13385V8.74868C1.3057 9.74495 1.79265 10.6293 2.54078 11.1772V24.6384H1.1642C0.522262 24.6384 0 25.1606 0 25.8025V28.1355C0 28.7775 0.522262 29.2997 1.1642 29.2997H2.54051V42.0476C2.54051 42.6669 3.04427 43.1707 3.66356 43.1707H29.2488C29.621 43.1707 29.9226 42.8691 29.9226 42.4969C29.9226 42.1246 29.621 41.823 29.2488 41.823H3.88817V29.2997H11.0766C11.4487 29.2997 11.7504 28.9981 11.7504 28.6259C11.7504 28.2537 11.4487 27.9521 11.0766 27.9521H1.34766V25.986H44.6523V27.9521H14.2212C13.8491 27.9521 13.5474 28.2537 13.5474 28.6259C13.5474 28.9981 13.8491 29.2997 14.2212 29.2997H42.1118V41.823H32.3934C32.0212 41.823 31.7196 42.1246 31.7196 42.4969C31.7196 42.8691 32.0212 43.1707 32.3934 43.1707H42.3364C42.9557 43.1707 43.4595 42.6669 43.4595 42.0476V29.2997H44.8358C45.4778 29.2997 46 28.7775 46 28.1355V25.8025C46 25.1606 45.4778 24.6384 44.8358 24.6384ZM12.278 24.638H7.93141V17.8265H12.278V24.638ZM32.1764 17.9976H30.9062C30.4401 17.9976 30.0612 17.6185 30.0612 17.1527C30.0612 16.6866 30.4402 16.3077 30.9062 16.3077H32.1764C32.6424 16.3077 33.0214 16.6867 33.0214 17.1527C33.0214 17.6186 32.6423 17.9976 32.1764 17.9976ZM38.4337 22.2857V24.6381H29.2596V22.2857H38.4337ZM39.3493 5.49121C39.7215 5.49121 40.0231 5.18961 40.0231 4.81738V4.17725H43.3466V8.74868C43.3466 9.6649 42.6011 10.4103 41.6848 10.4103C40.7686 10.4103 40.0231 9.6649 40.0231 8.74868V7.96191C40.0231 7.58969 39.7215 7.28809 39.3493 7.28809C38.9771 7.28809 38.6755 7.58969 38.6755 7.96191V8.74868C38.6755 9.6649 37.93 10.4103 37.0136 10.4103C36.0973 10.4103 35.3519 9.6649 35.3519 8.74868V4.17725H38.6755V4.81738C38.6755 5.18961 38.9771 5.49121 39.3493 5.49121ZM34.0042 8.74868C34.0042 9.6649 33.2587 10.4103 32.3424 10.4103C31.4261 10.4103 30.6807 9.6649 30.6807 8.74868V4.17725H34.0042V8.74868ZM29.333 8.74868C29.333 9.6649 28.5875 10.4103 27.6712 10.4103C26.7548 10.4103 26.0094 9.6649 26.0094 8.74868V4.17725H29.333V8.74868ZM24.6618 8.74868C24.6618 9.6649 23.9163 10.4103 23 10.4103C22.0837 10.4103 21.3382 9.6649 21.3382 8.74868V4.17725H24.6618V8.74868ZM19.9906 8.74868C19.9906 9.6649 19.2452 10.4103 18.3288 10.4103C17.4124 10.4103 16.667 9.6649 16.667 8.74868V4.17725H19.9906V8.74868ZM15.3193 8.74868C15.3193 9.6649 14.5739 10.4103 13.6575 10.4103C12.7412 10.4103 11.9958 9.6649 11.9958 8.74868V4.17725H15.3193V8.74868ZM10.6482 8.74868C10.6482 9.6649 9.90276 10.4103 8.98635 10.4103C8.07003 10.4103 7.3246 9.6649 7.3246 8.74868V4.17725H10.6482V8.74868ZM2.65336 4.17725H5.97695V8.74868C5.97695 9.6649 5.23142 10.4103 4.31511 10.4103C3.39879 10.4103 2.65336 9.6649 2.65336 8.74868V4.17725ZM4.31511 11.758C5.25676 11.758 6.0985 11.323 6.65077 10.6437C7.20304 11.323 8.0447 11.758 8.98635 11.758C9.928 11.758 10.7697 11.323 11.322 10.6437C11.8743 11.323 12.7159 11.758 13.6576 11.758C14.5992 11.758 15.441 11.323 15.9933 10.6437C16.5455 11.323 17.3872 11.758 18.3288 11.758C19.2705 11.758 20.1122 11.323 20.6645 10.6437C21.2168 11.323 22.0584 11.758 23.0001 11.758C23.9417 11.758 24.7834 11.323 25.3357 10.6437C25.8879 11.323 26.7296 11.758 27.6712 11.758C28.613 11.758 29.4546 11.323 30.0069 10.6437C30.5592 11.323 31.4008 11.758 32.3425 11.758C33.2841 11.758 34.1258 11.323 34.6781 10.6437C35.2303 11.323 36.072 11.758 37.0136 11.758C37.9554 11.758 38.797 11.323 39.3493 10.6438C39.9015 11.3231 40.7432 11.758 41.6848 11.758C41.8297 11.758 41.972 11.7471 42.1116 11.7272V24.638H39.7814V22.288C39.7814 21.5437 39.1758 20.938 38.4315 20.938H32.2151V19.3443C33.4062 19.3236 34.3691 18.3488 34.3691 17.1527C34.3691 15.9436 33.3855 14.96 32.1765 14.96H30.9062C29.6972 14.96 28.7136 15.9436 28.7136 17.1527C28.7136 18.3488 29.6764 19.3234 30.8675 19.3443V20.938H29.2606C28.5162 20.938 27.9107 21.5437 27.9107 22.288V24.638H13.6257V17.7912C13.6257 17.0675 13.037 16.4788 12.3133 16.4788H7.89619C7.1725 16.4788 6.58375 17.0676 6.58375 17.7912V24.638H3.88844V11.7272C4.02787 11.7471 4.17019 11.758 4.31511 11.758Z" fill="#0FBA12"/>
<path d="M18.6074 35.5613C18.6074 37.9833 20.5779 39.9538 22.9998 39.9538C25.4218 39.9538 27.3923 37.9833 27.3923 35.5613C27.3923 33.1394 25.4218 31.1689 22.9998 31.1689C20.5778 31.1689 18.6074 33.1393 18.6074 35.5613ZM26.0446 35.5613C26.0446 37.2402 24.6787 38.6061 22.9998 38.6061C21.3209 38.6061 19.9551 37.2402 19.9551 35.5613C19.9551 33.8824 21.321 32.5166 22.9998 32.5166C24.6786 32.5166 26.0446 33.8824 26.0446 35.5613Z" fill="#0FBA12"/>
<path d="M15.4037 40.2514C15.7759 40.2514 16.0776 39.9498 16.0776 39.5776V36.0513C17.0291 35.721 17.7236 34.7107 17.7236 33.5186C17.7236 32.059 16.6829 30.8716 15.4037 30.8716C14.1246 30.8716 13.084 32.059 13.084 33.5186C13.084 34.7108 13.7785 35.7211 14.7299 36.0513V39.5776C14.7299 39.9498 15.0315 40.2514 15.4037 40.2514ZM15.4037 32.2191C15.9308 32.2191 16.3759 32.8142 16.3759 33.5185C16.3759 34.2228 15.9308 34.8178 15.4037 34.8178C14.8768 34.8178 14.4316 34.2228 14.4316 33.5185C14.4316 32.8142 14.8767 32.2191 15.4037 32.2191Z" fill="#0FBA12"/>
<path d="M32.356 35.3313C32.7509 34.9056 32.9526 34.3292 32.909 33.75L32.7394 31.4944C32.7114 31.1233 32.3885 30.8447 32.0169 30.8731C31.6459 30.901 31.3676 31.2244 31.3956 31.5955L31.5652 33.851C31.5809 34.0606 31.5109 34.2608 31.3681 34.4147C31.2251 34.5687 31.0308 34.6535 30.8207 34.6535C30.6106 34.6535 30.4163 34.5687 30.2733 34.4147C30.1305 34.2606 30.0605 34.0606 30.0762 33.851L30.2458 31.5955C30.2738 31.2244 29.9955 30.901 29.6245 30.8731C29.253 30.845 28.93 31.1234 28.902 31.4944L28.7324 33.75C28.6888 34.3291 28.8904 34.9055 29.2853 35.3313C29.5232 35.5877 29.821 35.7777 30.1469 35.8887V39.5772C30.1469 39.9495 30.4485 40.2511 30.8207 40.2511C31.193 40.2511 31.4946 39.9495 31.4946 39.5772V35.8887C31.8204 35.7777 32.1182 35.5877 32.356 35.3313Z" fill="#0FBA12"/>
</g>
<defs>
<clipPath id="clip0_10855_12767">
<rect width="46" height="46" fill="white"/>
</clipPath>
</defs>
</svg>
