<svg width="47" height="46" viewBox="0 0 47 46" fill="none" xmlns="http://www.w3.org/2000/svg">
<path d="M15.4258 17.4297C14.7322 17.4297 14.168 17.9939 14.168 18.6875C14.168 19.3811 14.7322 19.9453 15.4258 19.9453C16.1194 19.9453 16.6836 19.3811 16.6836 18.6875C16.6836 17.9939 16.1194 17.4297 15.4258 17.4297ZM15.2461 18.6875C15.2461 18.5883 15.3266 18.5078 15.4258 18.5078C15.525 18.5078 15.6055 18.5883 15.6055 18.6875C15.6055 18.8852 15.2461 18.8852 15.2461 18.6875Z" fill="#0FBA12"/>
<path d="M22.6133 19.9453C23.3069 19.9453 23.8711 19.3811 23.8711 18.6875C23.8711 17.9939 23.3069 17.4297 22.6133 17.4297C21.9197 17.4297 21.3555 17.9939 21.3555 18.6875C21.3555 19.3811 21.9197 19.9453 22.6133 19.9453ZM22.6133 18.5078C22.7125 18.5078 22.793 18.5883 22.793 18.6875C22.793 18.8852 22.4336 18.8852 22.4336 18.6875C22.4336 18.5883 22.5141 18.5078 22.6133 18.5078Z" fill="#0FBA12"/>
<path d="M21.7148 22.2812H20.6367C20.6367 23.1725 19.9115 23.8984 19.0195 23.8984C18.1276 23.8984 17.4023 23.1725 17.4023 22.2812H16.3242C16.3242 23.7669 17.5332 24.9766 19.0195 24.9766C20.5059 24.9766 21.7148 23.7669 21.7148 22.2812Z" fill="#0FBA12"/>
<path d="M38.8362 33.0625H33.6137C32.7872 31.3274 31.0334 30.1875 29.082 30.1875H23.332V26.869C23.9523 26.5089 24.5359 26.0777 25.0613 25.5616C26.3788 24.2679 27.219 22.6277 27.5166 20.8445H28.0039C29.3911 20.8445 30.5195 19.716 30.5195 18.3288C30.5195 17.3291 29.9287 16.4709 29.082 16.0655V12.9375C29.082 7.38875 24.5683 2.875 19.0195 2.875C18.0823 2.875 17.1788 3.01372 16.317 3.2545C15.116 2.09731 13.5117 1.4375 11.832 1.4375C8.26559 1.4375 5.36327 4.33909 5.36327 7.90625V13.4435C5.36327 18.1628 4.15146 22.8383 1.86009 26.9639C1.69621 27.2586 1.75946 27.6273 2.01174 27.8508C2.14687 27.9702 2.31721 28.0312 2.48827 28.0312C2.63634 28.0312 2.7844 27.986 2.9109 27.894L5.44018 26.0547C7.36787 24.6524 9.10509 23.0093 10.636 21.1837C11.1909 23.5772 12.6902 25.6091 14.707 26.823V30.1875H8.95702C6.18265 30.1875 3.92577 32.4451 3.92577 35.2188V43.8438C3.92577 44.2412 4.24777 44.5625 4.64452 44.5625H29.082H42.7383C43.9271 44.5625 44.8945 43.5951 44.8945 42.4062V39.1208C44.8945 35.7801 42.1769 33.0625 38.8362 33.0625ZM32.0109 33.148C30.5576 33.3845 29.2761 34.1349 28.3633 35.2116V31.625H29.082C30.2658 31.625 31.3482 32.2137 32.0109 33.148ZM26.9258 42.4062V43.125H11.1133V31.625H12.5508V40.25C12.5508 40.6475 12.8728 40.9688 13.2695 40.9688H24.7695C25.1663 40.9688 25.4883 40.6475 25.4883 40.25V31.625H26.9258V39.1208V42.4062ZM13.9883 33.9372C14.5877 35.1613 15.5321 36.2099 16.7519 36.9071L18.663 37.9996C18.7737 38.0621 18.8966 38.0938 19.0195 38.0938C19.1424 38.0938 19.2653 38.0621 19.376 37.9989L21.2872 36.9064C22.5069 36.2092 23.4513 35.1605 24.0508 33.9365V39.5312H13.9883V33.9372ZM28.0039 19.4062H27.6445V17.25H28.0039C28.5983 17.25 29.082 17.7337 29.082 18.3281C29.082 18.9225 28.5983 19.4062 28.0039 19.4062ZM27.6445 12.9375V15.8125H27.6172C27.4864 13.8482 26.8244 11.9657 25.6493 10.2975C24.0026 8.32097 21.5862 7.1875 19.0195 7.1875C14.2679 7.1875 10.3988 11.0529 10.3945 15.8046C10.3945 15.8075 10.3952 15.8096 10.3952 15.8125H10.3945V12.9375C10.3945 8.18153 14.2636 4.3125 19.0195 4.3125C23.7755 4.3125 27.6445 8.18153 27.6445 12.9375ZM26.1797 15.8125C22.0555 15.8003 18.4783 13.1481 17.2722 9.20503C17.2349 9.08213 17.1673 8.97575 17.0782 8.89166C17.6963 8.71772 18.3468 8.625 19.0195 8.625C21.1585 8.625 23.1717 9.56944 24.5086 11.1708C25.4811 12.5537 26.0518 14.1464 26.1797 15.8125ZM15.8577 9.35884C15.2885 11.5482 13.8632 13.4284 11.937 14.5849C12.3351 12.2863 13.828 10.3579 15.8577 9.35884ZM10.0351 17.25H10.3945V19.1439C10.3945 19.2323 10.4046 19.3186 10.4075 19.4062H10.0351C9.44074 19.4062 8.95702 18.9225 8.95702 18.3281C8.95702 17.7337 9.44074 17.25 10.0351 17.25ZM4.59493 24.8925L4.41165 25.0254C5.98068 21.3778 6.80077 17.4254 6.80077 13.4435V7.90625C6.80077 5.13259 9.05765 2.875 11.832 2.875C12.8965 2.875 13.9236 3.21497 14.7731 3.82806C11.344 5.43303 8.95702 8.90747 8.95702 12.9375V16.0648C8.11034 16.4702 7.51952 17.3283 7.51952 18.3281C7.51952 19.4127 8.21312 20.3306 9.17696 20.6827C7.80846 22.2496 6.27824 23.6677 4.59493 24.8925ZM11.832 19.1439V16.2588C13.9487 15.2476 15.6493 13.5319 16.6311 11.4332C18.4546 14.9773 22.0972 17.25 26.207 17.25V19.4062C26.207 21.3512 25.443 23.1725 24.0544 24.536C22.6672 25.8987 20.8495 26.6268 18.8844 26.5923C14.996 26.5212 11.832 23.1804 11.832 19.1439ZM18.8578 28.0298C18.9131 28.0305 18.9671 28.0312 19.0217 28.0312C20.0171 28.0312 20.9824 27.8544 21.8945 27.5324V30.9062C21.8945 31.3037 22.2165 31.625 22.6133 31.625H23.2839C23.0603 33.3026 22.0649 34.8069 20.5742 35.6586L19.0195 36.5477L17.4649 35.6593C15.9735 34.8076 14.9787 33.3033 14.7552 31.6257H15.4258C15.8225 31.6257 16.1445 31.3044 16.1445 30.907V27.5123C16.9977 27.8264 17.9083 28.0126 18.8578 28.0298ZM5.36327 35.2188C5.36327 33.2372 6.97543 31.625 8.95702 31.625H9.67577V43.125H5.36327V35.2188ZM43.457 42.4062C43.457 42.803 43.1343 43.125 42.7383 43.125H29.082C28.686 43.125 28.3633 42.803 28.3633 42.4062V39.1208C28.3633 37.0077 29.7907 35.2252 31.7306 34.6775L33.5383 37.0875L34.6883 36.2257L33.3945 34.5H35.1914L37.132 37.0875L38.282 36.2257L36.9883 34.5H38.7851L40.7258 37.0875L41.8758 36.2257L40.9802 35.0312C42.4508 35.8045 43.457 37.3463 43.457 39.1208V42.4062Z" fill="#0FBA12"/>
<path d="M33.5375 29.0374L34.6875 29.8999L35.4271 28.9137C36.4485 27.5524 36.3112 25.6197 35.108 24.4165C34.7299 24.0385 34.5215 23.5346 34.5215 22.9999C34.5215 22.4651 34.7299 21.962 35.108 21.5832L35.3394 21.3518L34.3231 20.3354L34.0917 20.5669C33.4419 21.2159 33.084 22.0799 33.084 22.9999C33.084 23.9199 33.4419 24.7831 34.0917 25.4328C34.7925 26.1336 34.8722 27.2584 34.2771 28.0512L33.5375 29.0374Z" fill="#0FBA12"/>
<path d="M37.4418 24.7251L38.5925 25.5869L39.3321 24.6007C40.3535 23.2394 40.2155 21.306 39.0123 20.1035C38.2317 19.3222 38.2317 18.0522 39.0123 17.2716L39.2444 17.0402L38.2288 16.0225L37.9967 16.2546C37.3462 16.9051 36.9883 17.769 36.9883 18.6876C36.9883 19.6069 37.3462 20.4708 37.996 21.1206C38.6968 21.8213 38.7765 22.9462 38.1814 23.739L37.4418 24.7251Z" fill="#0FBA12"/>
</svg>
