<svg width="32" height="32" viewBox="0 0 32 32" fill="none" xmlns="http://www.w3.org/2000/svg">
<rect width="32" height="32" rx="16" fill="#303030" fill-opacity="0.6"/>
<path d="M23.3671 10.8417C22.9415 10.4159 22.4361 10.0781 21.8799 9.84763C21.3237 9.61716 20.7275 9.49854 20.1254 9.49854C19.5234 9.49854 18.9272 9.61716 18.371 9.84763C17.8147 10.0781 17.3094 10.4159 16.8838 10.8417L16.0004 11.7251L15.1171 10.8417C14.2573 9.98198 13.0913 9.49898 11.8754 9.49898C10.6596 9.49898 9.4935 9.98198 8.63376 10.8417C7.77401 11.7015 7.29102 12.8675 7.29102 14.0834C7.29102 15.2993 7.77401 16.4653 8.63376 17.3251L9.51709 18.2084L16.0004 24.6917L22.4838 18.2084L23.3671 17.3251C23.7929 16.8994 24.1307 16.3941 24.3612 15.8379C24.5917 15.2816 24.7103 14.6855 24.7103 14.0834C24.7103 13.4813 24.5917 12.8851 24.3612 12.3289C24.1307 11.7727 23.7929 11.2674 23.3671 10.8417V10.8417Z" stroke="#E3E3E3" stroke-linecap="round" stroke-linejoin="round"/>
</svg>
