<svg width="18" height="19" viewBox="0 0 18 19" fill="none" xmlns="http://www.w3.org/2000/svg">
<path d="M9 2.75C5.68629 2.75 3 5.43629 3 8.75V8.99555C3 10.2598 3.39905 11.4845 4.12978 12.5H4.125L4.14224 12.5173C4.29158 12.7232 4.45462 12.9205 4.6308 13.1077C4.89628 13.3898 9 16.625 9 16.625C9.59887 16.32 12.8805 13.627 13.3692 13.1077C13.5472 12.9186 13.7118 12.7191 13.8625 12.5107L13.875 12.5H13.8702C14.6009 11.4845 15 10.2598 15 8.99555V8.75C15 5.43629 12.3137 2.75 9 2.75Z" fill="#0FBA12"/>
<path d="M11.4375 8.75C11.4375 7.40381 10.3462 6.3125 9 6.3125C7.65381 6.3125 6.5625 7.40381 6.5625 8.75C6.5625 10.0962 7.65381 11.1875 9 11.1875C10.3462 11.1875 11.4375 10.0962 11.4375 8.75Z" fill="white"/>
</svg>
