<svg width="20" height="21" viewBox="0 0 20 21" fill="none" xmlns="http://www.w3.org/2000/svg">
<path d="M10.0007 3.06567C6.31875 3.06567 3.33398 6.05044 3.33398 9.73234V10.0052C3.33398 11.4098 3.77738 12.7707 4.5893 13.899H4.58398L4.60314 13.9182C4.76908 14.147 4.95023 14.3663 5.14598 14.5743C5.44096 14.8877 10.0007 18.4823 10.0007 18.4823C10.6661 18.1434 14.3123 15.1512 14.8553 14.5743C15.0532 14.3641 15.236 14.1424 15.4034 13.9109L15.4173 13.899H15.412C16.2239 12.7707 16.6673 11.4098 16.6673 10.0052V9.73234C16.6673 6.05044 13.6826 3.06567 10.0007 3.06567Z" stroke="#FBFBFB" stroke-width="1.25" stroke-linejoin="round"/>
<path d="M12.7077 9.73226C12.7077 8.23649 11.4951 7.02393 9.99935 7.02393C8.50358 7.02393 7.29102 8.23649 7.29102 9.73226C7.29102 11.228 8.50358 12.4406 9.99935 12.4406C11.4951 12.4406 12.7077 11.228 12.7077 9.73226Z" stroke="#FBFBFB" stroke-width="1.25"/>
</svg>
