<svg width="46" height="46" viewBox="0 0 46 46" fill="none" xmlns="http://www.w3.org/2000/svg">
<path d="M45.6715 21.3363C45.4509 21.1075 45.1421 20.9762 44.8244 20.9762H19.8271L21.062 8.53177C21.0933 8.21677 20.9893 7.9016 20.7768 7.66702C20.5643 7.43244 20.2609 7.29785 19.9444 7.29785H3.34003C3.02351 7.29785 2.72011 7.43244 2.50763 7.66693C2.29515 7.90151 2.1912 8.21677 2.22246 8.53177L4.55113 31.9998H1.88366C0.84498 31.9998 0 32.8447 0 33.8834C0 34.9221 0.84498 35.7671 1.88366 35.7671H3.40095C4.49066 38.1405 6.85984 39.6877 9.52236 39.6877H36.4219C37.0697 39.6877 37.5967 39.1607 37.5967 38.5129V34.8683C39.9246 33.7797 41.9249 32.0951 43.4012 29.975C44.9984 27.6811 45.8968 24.9899 45.9991 22.1922C46.0108 21.8763 45.8913 21.5643 45.6715 21.3363ZM4.15114 14.3204H13.1172C13.4894 14.3204 13.791 14.0188 13.791 13.6466C13.791 13.2743 13.4894 12.9727 13.1172 12.9727H4.01745L3.58809 8.6456H19.6964L19.2671 12.9727H16.2617C15.8895 12.9727 15.5879 13.2743 15.5879 13.6466C15.5879 14.0188 15.8895 14.3204 16.2617 14.3204H19.1333L18.4729 20.9763H18.0211C17.7034 20.9763 17.3946 21.1076 17.1739 21.3364C16.9541 21.5644 16.8347 21.8763 16.8462 22.1921C16.8622 22.6287 16.9003 23.0622 16.955 23.4925C16.6899 23.3865 16.4072 23.3296 16.117 23.3296C15.4259 23.3296 14.7825 23.647 14.3446 24.2021C14.0823 24.1048 13.8084 24.0537 13.5371 24.0537C12.7184 24.0537 11.9881 24.4843 11.5837 25.2055C11.5388 25.2856 11.4987 25.3679 11.4633 25.4523C11.3984 25.447 11.3335 25.4444 11.2685 25.4444C10.3321 25.4444 9.50816 26.0019 9.16945 26.865C9.09677 27.0504 9.04825 27.2409 9.024 27.4357C8.14703 27.6047 7.46054 28.2353 7.2494 29.11C7.17977 29.3982 7.16845 29.7007 7.21338 30.0003C6.51188 30.346 6.0437 30.9956 5.96383 31.7903C5.95682 31.8603 5.9535 31.9301 5.95296 31.9999H5.90552L4.15114 14.3204ZM1.88366 34.4193C1.58808 34.4193 1.34766 34.1788 1.34766 33.8833C1.34766 33.5878 1.58808 33.3473 1.88366 33.3473H19.8555C20.2277 33.3473 20.5293 33.0457 20.5293 32.6735C20.5293 32.3013 20.2277 31.9997 19.8555 31.9997H7.30124C7.3016 31.9747 7.30205 31.9497 7.30448 31.9248C7.34751 31.497 7.67445 31.1806 8.15781 31.0989C8.3667 31.0635 8.54693 30.9321 8.64414 30.7437C8.74144 30.5554 8.7444 30.3324 8.65231 30.1415C8.53812 29.9047 8.50488 29.6508 8.55923 29.4263C8.66013 29.0083 9.0302 28.7382 9.50214 28.7382C9.54734 28.7382 9.59369 28.7406 9.63978 28.7456C9.85146 28.7682 10.0607 28.6896 10.2054 28.5339C10.3498 28.3781 10.4124 28.1632 10.3741 27.9541C10.3351 27.7416 10.3519 27.5406 10.4239 27.3571C10.5586 27.0139 10.8901 26.7921 11.2683 26.7921C11.4106 26.7921 11.5558 26.8214 11.7 26.8794C11.8972 26.9587 12.1205 26.9402 12.302 26.8294C12.4836 26.7188 12.6023 26.5288 12.6221 26.3171C12.6378 26.1509 12.6839 25.9987 12.759 25.8647C12.9241 25.5703 13.2077 25.4014 13.5369 25.4014C13.7562 25.4014 13.9883 25.4861 14.1905 25.6401C14.3591 25.7686 14.578 25.8102 14.7819 25.7526C14.9858 25.695 15.1506 25.5449 15.2272 25.3475C15.2689 25.2395 15.3234 25.1407 15.3892 25.054C15.5706 24.8145 15.8358 24.6772 16.1168 24.6772C16.4204 24.6772 16.7138 24.8354 16.9216 25.111C17.0489 25.2799 17.2482 25.3791 17.4596 25.3791C17.6711 25.3791 17.8704 25.2798 17.9977 25.1109C18.2055 24.8354 18.4987 24.6772 18.8023 24.6772C19.0833 24.6772 19.3484 24.8146 19.5299 25.054C19.5955 25.1407 19.6501 25.2396 19.6921 25.3478C19.7688 25.5453 19.9336 25.6952 20.1375 25.7527C20.3414 25.8102 20.5604 25.7685 20.7288 25.6401C20.9308 25.4861 21.1628 25.4014 21.3822 25.4014C21.7114 25.4014 21.9949 25.5703 22.16 25.8645C22.2352 25.9988 22.2813 26.1512 22.297 26.3173C22.3169 26.529 22.4356 26.7189 22.6172 26.8295C22.7987 26.9402 23.0219 26.9587 23.2191 26.8793C23.3631 26.8214 23.5083 26.7921 23.6507 26.7921C24.029 26.7921 24.3603 27.0139 24.495 27.3571C24.5671 27.5407 24.5838 27.7416 24.545 27.9542C24.5066 28.1633 24.5693 28.3783 24.7139 28.534C24.8584 28.6898 25.0681 28.7687 25.2794 28.7455C25.3254 28.7406 25.3716 28.7382 25.4169 28.7382C25.8887 28.7382 26.2588 29.0083 26.3597 29.4263C26.414 29.6507 26.3808 29.9048 26.2665 30.1416C26.1745 30.3325 26.1775 30.5555 26.2748 30.7437C26.372 30.9321 26.5522 31.0636 26.7611 31.0989C27.2444 31.1806 27.5713 31.4971 27.6143 31.9247C27.6168 31.9496 27.6173 31.9747 27.6176 31.9997H23C22.6278 31.9997 22.3262 32.3013 22.3262 32.6735C22.3262 33.0457 22.6278 33.3473 23 33.3473H33.0357C33.3313 33.3473 33.5717 33.5878 33.5717 33.8833C33.5717 34.1788 33.3313 34.4193 33.0357 34.4193H1.88366ZM25.397 38.34H9.52236C7.61102 38.34 5.88854 37.3434 4.92479 35.767H29.9945C29.0308 37.3434 27.3084 38.34 25.397 38.34ZM42.2954 29.2046C40.8773 31.2411 38.9274 32.8347 36.6563 33.8133C36.4092 33.9198 36.2492 34.1631 36.2492 34.4322V38.34H29.4449C30.325 37.6791 31.0433 36.8019 31.5184 35.767H33.0358C34.0745 35.767 34.9195 34.922 34.9195 33.8833C34.9195 32.8447 34.0745 31.9997 33.0358 31.9997H28.9663C28.9659 31.9299 28.9625 31.86 28.9555 31.7899C28.8756 30.9953 28.4075 30.3457 27.7061 30C27.7509 29.7006 27.7396 29.3981 27.6701 29.1099C27.6056 28.8429 27.4964 28.599 27.3514 28.3836H42.8224C42.657 28.6629 42.4818 28.9369 42.2954 29.2046ZM43.5175 27.0361H25.8088C25.7911 26.9786 25.7719 26.9214 25.7498 26.8649C25.4112 26.0021 24.5874 25.4444 23.651 25.4444C23.586 25.4444 23.521 25.447 23.4561 25.4523C23.4455 25.4271 23.4337 25.4024 23.4222 25.3775H44.1275C43.9617 25.9433 43.7579 26.4971 43.5175 27.0361ZM44.4462 24.0298H20.424C19.9954 23.5821 19.4181 23.3296 18.8025 23.3296C18.6316 23.3296 18.4635 23.35 18.2998 23.3874C18.2532 23.0353 18.2187 22.6809 18.2008 22.324H44.6447C44.6158 22.899 44.5482 23.4684 44.4462 24.0298Z" fill="#0FBA12"/>
<path d="M16.7035 27.5522H15.6953C15.3231 27.5522 15.0215 27.8539 15.0215 28.2261C15.0215 28.5983 15.3231 28.8999 15.6953 28.8999H16.7035C17.0758 28.8999 17.3774 28.5983 17.3774 28.2261C17.3774 27.8539 17.0758 27.5522 16.7035 27.5522Z" fill="#0FBA12"/>
<path d="M21.5434 28.9639H20.5352C20.1629 28.9639 19.8613 29.2655 19.8613 29.6377C19.8613 30.0099 20.1629 30.3115 20.5352 30.3115H21.5434C21.9156 30.3115 22.2172 30.0099 22.2172 29.6377C22.2172 29.2655 21.9156 28.9639 21.5434 28.9639Z" fill="#0FBA12"/>
<path d="M12.3675 29.4683H11.3594C10.9872 29.4683 10.6855 29.7699 10.6855 30.1421C10.6855 30.5143 10.9872 30.8159 11.3594 30.8159H12.3675C12.7397 30.8159 13.0413 30.5143 13.0413 30.1421C13.0413 29.7699 12.7397 29.4683 12.3675 29.4683Z" fill="#0FBA12"/>
<path d="M26.2208 19.4551C26.593 19.4551 26.8946 19.1535 26.8946 18.7813V17.5467C26.8946 17.0862 27.2693 16.7116 27.7297 16.7116H34.1314C35.3349 16.7116 36.3141 15.7325 36.3141 14.5288C36.3141 13.3252 35.335 12.3461 34.1314 12.3461H28.6443C28.1838 12.3461 27.8091 11.9714 27.8091 11.5109C27.8091 11.0504 28.1838 10.6758 28.6443 10.6758H33.6911C34.0633 10.6758 34.3649 10.3742 34.3649 10.002C34.3649 9.62973 34.0633 9.32812 33.6911 9.32812H28.6442C27.4407 9.32812 26.4614 10.3072 26.4614 11.5109C26.4614 12.7145 27.4406 13.6937 28.6442 13.6937H34.1313C34.5917 13.6937 34.9664 14.0684 34.9664 14.5288C34.9664 14.9893 34.5917 15.3639 34.1313 15.3639H27.7296C26.5261 15.3639 25.5469 16.343 25.5469 17.5467V18.7813C25.547 19.1534 25.8486 19.4551 26.2208 19.4551Z" fill="#0FBA12"/>
<path d="M36.8437 10.6662H41.353C42.5533 10.6662 43.5299 9.68964 43.5299 8.48932C43.5299 7.28901 42.5533 6.3125 41.353 6.3125H38.3468C37.9746 6.3125 37.673 6.61411 37.673 6.98633C37.673 7.35855 37.9746 7.66016 38.3468 7.66016H41.353C41.8103 7.66016 42.1823 8.0322 42.1823 8.48932C42.1823 8.94663 41.8102 9.31858 41.353 9.31858H36.8437C36.4715 9.31858 36.1699 9.62019 36.1699 9.99241C36.1699 10.3646 36.4716 10.6662 36.8437 10.6662Z" fill="#0FBA12"/>
</svg>
