<svg width="18" height="18" viewBox="0 0 18 18" fill="none" xmlns="http://www.w3.org/2000/svg">
<path d="M8.3373 2.74708C8.6193 2.21614 9.3801 2.21614 9.6621 2.74708L11.1291 5.50921C11.2375 5.71333 11.434 5.85605 11.6616 5.89608L14.7418 6.43776C15.334 6.54187 15.569 7.26541 15.1512 7.69765L12.9776 9.94645C12.817 10.1126 12.742 10.3436 12.7742 10.5724L13.2109 13.6693C13.2949 14.2646 12.6793 14.7117 12.1392 14.448L9.3288 13.0757C9.12112 12.9742 8.87827 12.9742 8.6706 13.0757L5.86022 14.448C5.32001 14.7117 4.70454 14.2646 4.78848 13.6693L5.22517 10.5724C5.25745 10.3436 5.18241 10.1126 5.02179 9.94645L2.84818 7.69765C2.43037 7.26541 2.66546 6.54187 3.25755 6.43776L6.33783 5.89608C6.56545 5.85605 6.7619 5.71332 6.87031 5.50921L8.3373 2.74708Z" fill="#0FBA12"/>
</svg>
