<svg width="33" height="32" viewBox="0 0 33 32" fill="none" xmlns="http://www.w3.org/2000/svg">
<path d="M8.33433 9.10192L9.15582 8.52923C11.0117 7.23542 12.3592 6.29718 13.5025 5.67644C14.631 5.06372 15.5037 4.7933 16.3997 4.7933C17.2958 4.7933 18.1684 5.06372 19.297 5.67644C20.4403 6.29718 21.7878 7.23542 23.6437 8.52923L24.4651 9.10192C26.4906 10.5139 27.3649 11.1346 27.9516 11.9574C28.2737 12.4091 28.5315 12.9031 28.7178 13.4256C29.0573 14.3775 29.0664 15.4496 29.0664 17.9187C29.0664 20.1527 29.0657 21.7805 28.9425 23.0542C28.8203 24.3177 28.5826 25.1626 28.152 25.8503C27.6702 26.62 27.0199 27.2703 26.2502 27.7521C25.5625 28.1827 24.7176 28.4204 23.4541 28.5426C22.1804 28.6658 20.5526 28.6665 18.3186 28.6665H14.4809C12.2469 28.6665 10.6191 28.6658 9.34536 28.5426C8.08183 28.4204 7.23701 28.1827 6.54932 27.7521C5.7796 27.2703 5.1293 26.62 4.64743 25.8503C4.21692 25.1626 3.97916 24.3177 3.85697 23.0542C3.7338 21.7805 3.73307 20.1527 3.73307 17.9187C3.73307 15.4496 3.7422 14.3775 4.08167 13.4256C4.26797 12.9031 4.52582 12.4091 4.84785 11.9574C5.43461 11.1346 6.3089 10.5139 8.33433 9.10192Z" stroke="#A0A0A0" stroke-width="1.33333" stroke-linejoin="round"/>
<path d="M19.0664 22.6665L13.7331 22.6665" stroke="#A0A0A0" stroke-width="1.33333" stroke-linecap="round" stroke-linejoin="round"/>
</svg>
