<svg width="33" height="32" viewBox="0 0 33 32" fill="none" xmlns="http://www.w3.org/2000/svg">
<path fill-rule="evenodd" clip-rule="evenodd" d="M8.77456 7.98266L7.95307 8.55536L7.95307 8.55536C5.96738 9.93967 4.97453 10.6318 4.30505 11.5707C3.94724 12.0725 3.66074 12.6215 3.45373 13.202C3.06641 14.2881 3.06641 15.4984 3.06641 17.919C3.06641 22.3606 3.06641 24.5815 4.08236 26.2043C4.61777 27.0596 5.34033 27.7821 6.19557 28.3175C7.81843 29.3335 10.0392 29.3335 14.4809 29.3335H18.3186C22.7602 29.3335 24.981 29.3335 26.6039 28.3175C27.4592 27.7821 28.1817 27.0596 28.7171 26.2043C29.7331 24.5815 29.7331 22.3606 29.7331 17.919C29.7331 15.4984 29.7331 14.2881 29.3457 13.202C29.1387 12.6215 28.8522 12.0725 28.4944 11.5707C27.8249 10.6318 26.8321 9.93967 24.8464 8.55535L24.0249 7.98266C20.3378 5.41219 18.4942 4.12695 16.3997 4.12695C14.3053 4.12695 12.4617 5.41219 8.77456 7.98266ZM19.2182 23.6666C19.7705 23.6666 20.2182 23.2189 20.2182 22.6666C20.2182 22.1143 19.7705 21.6666 19.2182 21.6666H13.5813C13.029 21.6666 12.5813 22.1143 12.5813 22.6666C12.5813 23.2189 13.029 23.6666 13.5813 23.6666H19.2182Z" fill="url(#paint0_linear_10837_834)"/>
<defs>
<linearGradient id="paint0_linear_10837_834" x1="27.7838" y1="4.12695" x2="14.5644" y2="31.3387" gradientUnits="userSpaceOnUse">
<stop stop-color="#3FBA69"/>
<stop offset="1" stop-color="#4EFB85"/>
</linearGradient>
</defs>
</svg>
